<svg id="svg" version="1.1" xmlns="http://www.w3.org/2000/svg" xmlns:xlink="http://www.w3.org/1999/xlink" width="400" height="478.38258164852255" viewBox="0, 0, 400,478.38258164852255"><g id="svgg"><path id="path0" d="M298.905 204.287 C 299.514 204.379,300.414 204.377,300.905 204.282 C 301.397 204.187,300.900 204.111,299.800 204.114 C 298.700 204.117,298.297 204.195,298.905 204.287 M119.260 322.635 L 119.200 387.470 116.900 388.217 C 115.635 388.628,114.429 389.107,114.220 389.282 C 114.011 389.457,113.561 389.601,113.220 389.602 C 112.879 389.604,112.117 389.857,111.527 390.165 C 110.937 390.473,109.902 390.846,109.227 390.994 C 108.552 391.142,108.000 391.415,108.000 391.600 C 108.000 391.785,107.421 392.064,106.713 392.219 C 106.005 392.375,105.150 392.647,104.813 392.825 C 103.039 393.761,101.399 394.400,100.772 394.400 C 100.384 394.400,99.991 394.625,99.899 394.900 C 99.770 395.283,97.562 395.387,90.465 395.344 C 85.369 395.313,81.200 395.443,81.200 395.634 C 81.200 396.775,84.696 397.732,89.500 397.905 C 92.195 398.003,94.400 398.244,94.400 398.441 C 94.400 398.639,95.795 398.803,97.500 398.806 L 100.600 398.813 99.246 400.006 C 98.501 400.663,97.728 401.200,97.529 401.200 C 97.329 401.200,96.949 401.387,96.683 401.615 C 95.430 402.691,91.172 405.600,90.849 405.600 C 90.649 405.600,90.382 405.870,90.255 406.200 C 90.129 406.530,89.749 406.800,89.413 406.800 C 89.076 406.800,88.800 406.941,88.800 407.114 C 88.800 407.286,88.215 407.764,87.500 408.176 C 84.328 410.003,84.051 411.200,86.800 411.200 C 87.900 411.200,88.800 411.045,88.800 410.856 C 88.800 410.666,89.835 410.414,91.100 410.294 C 92.365 410.175,93.940 409.791,94.600 409.441 C 95.260 409.091,96.025 408.804,96.300 408.802 C 96.575 408.801,96.800 408.620,96.800 408.400 C 96.800 408.180,97.095 408.000,97.456 408.000 C 97.816 408.000,98.989 407.460,100.062 406.800 C 102.703 405.175,103.883 405.296,102.000 407.000 C 101.560 407.398,101.200 407.966,101.200 408.262 C 101.200 408.558,101.020 408.800,100.800 408.800 C 99.872 408.800,100.496 409.958,101.549 410.189 C 102.810 410.466,104.800 410.100,104.800 409.592 C 104.800 409.415,105.520 409.149,106.400 409.000 C 107.280 408.851,108.000 408.585,108.000 408.408 C 108.000 408.231,108.465 407.970,109.034 407.827 C 110.863 407.368,116.648 401.777,117.053 400.076 C 117.195 399.484,117.441 398.820,117.601 398.600 C 117.761 398.380,117.989 397.439,118.107 396.508 C 118.363 394.494,120.118 392.516,121.982 392.144 C 122.661 392.008,123.314 391.740,123.432 391.548 C 123.550 391.357,126.067 391.200,129.024 391.200 L 134.401 391.200 136.009 392.857 C 137.781 394.683,137.806 395.305,136.182 397.057 C 135.656 397.625,135.118 398.429,134.986 398.845 C 134.854 399.260,134.578 399.600,134.373 399.600 C 134.168 399.600,134.000 399.816,134.000 400.080 C 134.000 400.645,128.966 405.600,128.392 405.600 C 128.176 405.600,128.000 405.780,128.000 406.000 C 128.000 406.220,127.775 406.406,127.500 406.414 C 127.225 406.421,126.280 406.775,125.400 407.200 C 124.520 407.625,123.485 407.979,123.100 407.986 C 122.715 407.994,122.400 408.180,122.400 408.400 C 122.400 408.620,121.995 408.801,121.500 408.802 C 121.005 408.804,120.084 409.074,119.454 409.402 C 118.824 409.731,118.121 410.000,117.892 410.000 C 117.663 410.000,116.886 410.450,116.164 411.000 C 115.443 411.550,114.701 412.000,114.516 412.000 C 113.039 412.000,112.416 414.633,113.829 414.903 C 115.018 415.131,118.000 414.463,118.000 413.969 C 118.000 413.786,118.630 413.518,119.400 413.374 C 120.170 413.229,120.800 412.968,120.800 412.793 C 120.800 412.618,121.700 412.351,122.800 412.200 C 123.899 412.049,124.900 411.762,125.023 411.563 C 125.355 411.025,129.200 411.108,129.200 411.653 C 129.200 412.297,126.816 414.457,125.075 415.391 C 124.264 415.826,123.600 416.321,123.600 416.491 C 123.600 416.661,123.330 416.800,123.000 416.800 C 122.670 416.800,122.400 416.960,122.400 417.157 C 122.400 417.353,121.950 417.626,121.400 417.764 C 120.850 417.902,120.400 418.192,120.400 418.408 C 120.400 418.623,120.144 418.800,119.831 418.800 C 118.046 418.800,116.240 422.087,117.500 423.043 C 118.299 423.650,120.400 423.786,120.400 423.232 C 120.400 423.029,120.940 422.745,121.600 422.600 C 122.260 422.455,122.800 422.209,122.800 422.054 C 122.800 421.898,124.060 421.334,125.600 420.800 C 127.140 420.266,128.400 419.702,128.400 419.546 C 128.400 419.391,128.940 419.145,129.600 419.000 C 130.260 418.855,130.800 418.584,130.800 418.398 C 130.800 417.392,133.352 418.159,134.801 419.600 C 135.908 420.701,138.623 421.633,140.031 421.395 C 141.842 421.089,141.980 420.644,140.647 419.408 C 140.123 418.922,139.560 418.092,139.398 417.562 C 139.235 417.033,138.920 416.373,138.698 416.095 C 138.295 415.592,139.145 411.919,140.046 410.269 C 140.265 409.868,140.550 408.653,140.678 407.569 C 140.908 405.629,142.565 404.648,143.381 405.969 C 143.506 406.172,144.115 406.450,144.733 406.585 C 146.325 406.935,148.535 408.877,149.804 411.044 C 152.117 414.990,153.791 415.648,154.248 412.791 C 154.389 411.906,154.661 411.086,154.853 410.968 C 155.044 410.849,155.206 410.268,155.214 409.676 C 155.263 405.977,158.977 403.391,160.211 406.198 C 160.645 407.185,161.112 407.994,161.249 407.996 C 161.386 407.998,161.583 408.885,161.687 409.967 C 161.954 412.745,163.707 414.121,167.646 414.644 C 169.454 414.884,169.600 414.839,169.600 414.052 C 169.600 413.583,169.437 413.200,169.238 413.200 C 169.038 413.200,168.751 412.300,168.600 411.200 C 168.449 410.101,168.183 409.113,168.009 409.005 C 167.835 408.898,167.571 408.002,167.423 407.014 C 167.275 406.027,166.984 405.114,166.777 404.986 C 166.570 404.858,166.400 404.403,166.400 403.976 C 166.400 403.549,166.220 403.200,166.000 403.200 C 165.780 403.200,165.600 402.648,165.600 401.973 C 165.600 400.788,166.880 400.549,167.600 401.600 C 167.710 401.761,168.174 402.009,168.632 402.151 C 169.444 402.405,171.025 405.054,171.455 406.883 C 171.574 407.388,171.772 408.250,171.895 408.800 C 172.018 409.350,172.227 409.890,172.360 410.000 C 172.893 410.444,174.400 412.795,174.400 413.184 C 174.400 413.413,174.564 413.600,174.765 413.600 C 174.966 413.600,175.251 414.320,175.400 415.200 C 175.549 416.080,175.834 416.800,176.035 416.800 C 176.236 416.800,176.400 417.310,176.400 417.933 C 176.400 418.557,176.535 419.202,176.700 419.367 C 176.865 419.532,177.015 419.787,177.033 419.933 C 177.278 421.942,180.000 423.863,180.000 422.027 C 180.000 421.822,180.368 421.537,180.818 421.394 C 183.483 420.548,185.871 416.656,185.343 414.017 C 185.089 412.744,181.529 408.800,180.635 408.800 C 180.160 408.800,179.621 407.675,179.605 406.648 C 179.599 406.234,185.211 406.719,185.800 407.184 C 186.020 407.357,187.051 407.622,188.091 407.773 C 189.131 407.923,190.080 408.205,190.200 408.400 C 190.320 408.595,191.224 408.875,192.209 409.022 C 193.194 409.170,194.000 409.430,194.000 409.601 C 194.000 410.069,196.611 410.463,197.776 410.170 C 199.432 409.755,198.141 406.400,196.325 406.400 C 196.128 406.400,195.569 406.028,195.083 405.573 C 194.597 405.117,193.705 404.645,193.100 404.523 C 192.495 404.400,192.000 404.158,192.000 403.985 C 192.000 403.812,191.280 403.549,190.400 403.400 C 189.520 403.251,188.800 402.989,188.800 402.816 C 188.800 402.643,188.080 402.387,187.200 402.246 C 186.320 402.106,185.600 401.832,185.600 401.639 C 185.600 401.445,185.114 401.165,184.520 401.016 C 181.506 400.259,177.267 393.600,179.800 393.600 C 180.350 393.600,180.800 393.780,180.800 394.000 C 180.800 394.220,181.070 394.400,181.400 394.400 C 181.730 394.400,182.000 394.560,182.000 394.757 C 182.000 394.953,182.493 395.237,183.096 395.388 C 183.699 395.540,184.307 395.849,184.447 396.075 C 184.587 396.302,185.533 396.581,186.551 396.696 C 187.568 396.810,188.400 397.061,188.400 397.252 C 188.400 397.443,189.570 397.600,191.000 397.600 C 194.031 397.600,194.718 396.244,192.100 395.427 C 191.605 395.272,191.200 394.978,191.200 394.773 C 191.200 394.568,190.930 394.400,190.600 394.400 C 190.270 394.400,190.000 394.209,190.000 393.976 C 190.000 393.743,189.820 393.664,189.600 393.800 C 189.380 393.936,189.200 393.857,189.200 393.624 C 189.200 393.391,188.930 393.200,188.600 393.200 C 188.270 393.200,188.000 393.020,188.000 392.800 C 188.000 392.580,187.752 392.400,187.449 392.400 C 187.146 392.400,186.674 392.130,186.400 391.800 C 185.965 391.276,186.286 391.200,188.951 391.200 C 190.717 391.200,192.000 391.368,192.000 391.600 C 192.000 391.820,192.315 392.001,192.700 392.001 C 194.194 392.005,196.398 393.807,203.827 401.100 C 207.531 404.736,207.629 404.800,209.529 404.800 C 211.449 404.800,211.460 404.792,211.285 403.600 C 211.188 402.940,210.964 402.400,210.786 402.400 C 210.609 402.400,210.345 401.860,210.200 401.200 C 210.055 400.540,209.790 400.000,209.612 400.000 C 209.433 400.000,209.163 399.507,209.012 398.904 C 208.860 398.301,208.585 397.714,208.400 397.600 C 208.215 397.486,207.934 396.875,207.775 396.243 L 207.487 395.095 210.243 395.387 C 211.760 395.547,213.180 395.824,213.400 396.002 C 213.620 396.180,214.700 396.455,215.800 396.613 C 216.900 396.771,217.980 397.043,218.200 397.216 C 218.420 397.390,219.950 397.660,221.600 397.817 C 223.250 397.974,224.812 398.270,225.070 398.476 C 225.329 398.681,226.319 398.793,227.270 398.724 L 229.000 398.600 229.000 397.000 C 229.000 395.591,228.881 395.386,228.000 395.283 C 227.450 395.219,226.640 395.008,226.200 394.813 C 225.760 394.619,224.860 394.347,224.200 394.210 C 223.540 394.072,221.740 393.687,220.200 393.355 C 218.660 393.022,216.230 392.537,214.800 392.275 C 213.370 392.014,212.020 391.683,211.800 391.540 C 211.580 391.397,210.320 391.150,209.000 390.991 C 207.680 390.831,206.420 390.561,206.200 390.390 C 205.980 390.219,204.585 389.950,203.100 389.793 C 201.615 389.635,200.400 389.367,200.400 389.195 C 200.400 389.024,199.725 388.793,198.900 388.682 C 195.453 388.216,195.813 389.744,195.695 375.062 C 195.629 366.945,195.734 362.000,195.972 362.000 C 196.204 362.000,196.381 357.794,196.422 351.300 C 196.506 338.098,197.010 321.410,197.373 319.800 L 197.644 318.600 197.057 319.595 C 196.734 320.142,196.555 320.727,196.659 320.895 C 197.032 321.500,195.986 321.183,195.103 320.424 C 194.606 319.998,193.767 319.278,193.239 318.824 C 192.710 318.371,192.170 317.997,192.039 317.994 C 191.907 317.990,190.990 317.273,190.000 316.400 C 189.010 315.527,188.093 314.810,187.961 314.806 C 187.830 314.803,187.326 314.456,186.842 314.036 C 184.935 312.382,182.673 310.582,182.057 310.227 C 181.264 309.770,180.974 309.538,179.200 307.946 C 178.430 307.255,177.350 306.399,176.800 306.045 C 175.720 305.348,174.269 304.188,173.181 303.150 C 172.807 302.793,172.319 302.433,172.097 302.350 C 171.642 302.180,168.610 299.763,167.518 298.700 C 167.123 298.315,166.643 298.000,166.452 298.000 C 166.130 298.000,163.591 295.928,161.919 294.300 C 161.524 293.915,161.043 293.600,160.852 293.600 C 160.530 293.600,157.991 291.528,156.319 289.900 C 155.924 289.515,155.465 289.200,155.300 289.200 C 155.135 289.200,154.292 288.570,153.427 287.800 C 152.562 287.030,151.725 286.400,151.566 286.400 C 151.294 286.400,149.157 284.652,147.533 283.100 C 147.130 282.715,146.653 282.400,146.473 282.400 C 146.293 282.400,145.438 281.770,144.573 281.000 C 143.708 280.230,142.787 279.600,142.527 279.600 C 142.267 279.600,141.940 279.240,141.800 278.800 C 141.660 278.360,141.321 278.000,141.046 278.000 C 140.770 278.000,139.838 277.370,138.973 276.600 C 138.108 275.830,137.265 275.200,137.100 275.200 C 136.935 275.200,136.476 274.885,136.081 274.500 C 134.409 272.872,131.870 270.800,131.548 270.800 C 131.357 270.800,130.879 270.485,130.486 270.100 C 130.094 269.715,129.178 268.950,128.452 268.400 C 127.725 267.850,126.889 267.175,126.594 266.900 C 126.299 266.625,125.954 266.400,125.829 266.400 C 125.703 266.400,125.271 266.085,124.869 265.700 C 122.620 263.548,120.675 262.258,120.278 262.655 C 120.062 262.871,119.783 261.617,119.466 259.000 C 119.385 258.340,119.293 286.976,119.260 322.635 " stroke="none" fill="#75b224" fill-rule="evenodd"></path><path id="path1" d="M230.981 64.031 C 230.898 64.165,227.718 64.392,223.915 64.535 C 216.566 64.811,215.783 64.883,215.345 65.322 C 215.192 65.475,214.107 65.600,212.933 65.600 C 211.760 65.600,210.800 65.754,210.800 65.942 C 210.800 66.131,209.321 66.408,207.513 66.559 C 205.706 66.710,204.131 66.984,204.013 67.169 C 203.896 67.353,202.495 67.634,200.900 67.793 C 199.305 67.951,198.000 68.225,198.000 68.401 C 198.000 68.577,196.920 68.847,195.600 69.000 C 194.280 69.153,193.200 69.424,193.200 69.602 C 193.200 69.779,192.300 70.049,191.200 70.200 C 190.101 70.351,189.100 70.638,188.977 70.837 C 188.854 71.037,188.410 71.200,187.990 71.200 C 187.312 71.200,185.419 71.891,183.549 72.821 C 183.191 73.000,182.246 73.268,181.449 73.417 C 180.652 73.567,180.000 73.849,180.000 74.045 C 180.000 74.240,179.685 74.401,179.300 74.402 C 178.915 74.404,178.117 74.657,177.527 74.965 C 176.937 75.273,175.902 75.646,175.227 75.794 C 174.552 75.942,174.000 76.192,174.000 76.349 C 174.000 76.506,173.010 76.971,171.800 77.382 C 170.590 77.793,169.600 78.261,169.600 78.422 C 169.600 78.582,169.107 78.837,168.504 78.988 C 167.901 79.140,167.316 79.384,167.204 79.532 C 167.092 79.679,166.100 80.250,165.000 80.800 C 163.900 81.350,162.910 81.890,162.800 82.000 C 162.690 82.110,161.925 82.543,161.100 82.963 C 160.275 83.383,159.600 83.878,159.600 84.063 C 159.600 84.248,159.363 84.400,159.074 84.400 C 158.530 84.400,153.493 87.650,152.504 88.639 C 152.195 88.948,151.819 89.200,151.667 89.200 C 151.516 89.200,150.936 89.622,150.379 90.139 C 149.822 90.655,149.170 91.150,148.930 91.239 C 147.950 91.601,136.791 102.000,137.384 102.000 C 137.495 102.000,137.004 102.625,136.293 103.388 C 134.446 105.371,134.000 105.928,134.000 106.250 C 134.000 106.405,133.726 106.818,133.391 107.166 C 133.056 107.515,132.248 108.520,131.596 109.400 C 130.943 110.280,130.249 111.194,130.054 111.431 C 129.858 111.668,129.574 112.253,129.422 112.731 C 129.270 113.209,128.993 113.600,128.805 113.600 C 128.617 113.600,128.345 114.140,128.200 114.800 C 128.055 115.460,127.771 116.000,127.568 116.000 C 127.366 116.000,127.200 116.225,127.200 116.500 C 127.200 116.775,126.667 117.990,126.016 119.200 C 125.365 120.410,124.825 121.715,124.816 122.100 C 124.807 122.485,124.620 122.800,124.400 122.800 C 124.180 122.800,123.999 123.025,123.998 123.300 C 123.996 123.575,123.752 124.267,123.454 124.837 C 123.156 125.408,122.785 126.555,122.629 127.386 C 122.473 128.218,122.185 129.191,121.989 129.549 C 121.589 130.279,120.899 133.187,120.411 136.200 C 120.233 137.300,119.949 138.650,119.780 139.200 C 119.330 140.660,119.067 174.797,119.452 181.600 C 119.633 184.790,119.843 186.680,119.917 185.800 C 120.041 184.349,120.800 182.732,120.800 183.920 C 120.800 184.184,121.133 184.400,121.540 184.400 C 121.947 184.400,122.694 184.940,123.200 185.600 C 123.706 186.260,124.297 186.800,124.514 186.800 C 124.731 186.800,125.325 187.250,125.835 187.800 C 126.345 188.350,127.000 188.800,127.292 188.800 C 127.583 188.800,128.275 189.316,128.828 189.947 C 129.382 190.577,130.222 191.217,130.697 191.367 C 131.171 191.518,131.667 191.983,131.800 192.400 C 131.933 192.817,132.437 193.283,132.920 193.435 C 133.404 193.587,134.196 194.136,134.681 194.656 C 135.165 195.175,135.737 195.600,135.950 195.600 C 136.164 195.600,136.878 196.140,137.538 196.800 C 138.198 197.460,138.867 198.000,139.023 198.000 C 139.180 198.000,139.725 198.450,140.235 199.000 C 140.745 199.550,141.337 200.000,141.550 200.000 C 141.764 200.000,142.454 200.516,143.085 201.146 C 143.715 201.777,144.620 202.416,145.095 202.567 C 145.570 202.718,146.070 203.192,146.206 203.620 C 146.343 204.049,146.698 204.400,146.996 204.400 C 147.294 204.400,148.078 204.940,148.738 205.600 C 149.398 206.260,150.118 206.800,150.338 206.800 C 150.558 206.800,151.278 207.340,151.938 208.000 C 152.598 208.660,153.251 209.200,153.388 209.200 C 153.526 209.200,154.055 209.650,154.565 210.200 C 155.075 210.750,155.682 211.200,155.915 211.200 C 156.148 211.200,156.878 211.740,157.538 212.400 C 158.198 213.060,158.907 213.600,159.113 213.600 C 159.319 213.600,159.826 214.050,160.239 214.600 C 160.652 215.150,161.203 215.600,161.464 215.600 C 161.725 215.600,162.478 216.140,163.138 216.800 C 163.798 217.460,164.492 218.000,164.680 218.000 C 164.868 218.000,165.320 218.315,165.683 218.700 C 166.577 219.647,167.516 220.400,167.802 220.400 C 167.932 220.400,168.455 220.850,168.965 221.400 C 169.475 221.950,170.056 222.400,170.257 222.400 C 170.458 222.400,170.920 222.715,171.283 223.100 C 172.287 224.164,173.127 224.800,173.527 224.800 C 173.726 224.800,174.226 225.250,174.639 225.800 C 175.052 226.350,175.577 226.800,175.806 226.800 C 176.035 226.800,176.520 227.115,176.883 227.500 C 177.862 228.537,178.724 229.200,179.094 229.200 C 179.275 229.200,179.730 229.560,180.107 230.000 C 180.484 230.440,181.052 230.800,181.369 230.800 C 181.686 230.800,182.057 231.151,182.194 231.580 C 182.330 232.008,182.792 232.470,183.220 232.606 C 183.649 232.743,184.000 233.022,184.000 233.227 C 184.000 233.432,184.233 233.600,184.519 233.600 C 184.804 233.600,185.479 234.132,186.019 234.783 C 186.558 235.434,187.197 235.974,187.439 235.983 C 187.680 235.992,188.293 236.360,188.800 236.800 C 189.307 237.240,189.965 237.600,190.261 237.600 C 190.558 237.600,190.800 237.754,190.800 237.942 C 190.800 238.527,192.632 240.293,193.538 240.580 C 194.012 240.731,194.411 241.157,194.425 241.527 C 194.443 241.994,194.596 241.894,194.925 241.200 C 195.279 240.454,195.428 229.918,195.511 199.700 C 195.572 177.425,195.770 159.200,195.951 159.200 C 196.131 159.200,196.393 157.467,196.532 155.350 C 196.671 153.232,196.945 151.297,197.140 151.050 C 197.336 150.802,197.621 149.903,197.775 149.051 C 197.929 148.199,198.214 147.209,198.410 146.851 C 198.605 146.493,199.313 144.972,199.983 143.471 C 200.653 141.970,201.426 140.491,201.701 140.185 C 202.892 138.856,203.200 138.408,203.200 138.004 C 203.200 137.768,203.463 137.474,203.785 137.350 C 204.106 137.227,204.490 136.746,204.637 136.282 C 204.908 135.428,209.405 130.800,209.964 130.800 C 210.130 130.800,210.792 130.265,211.433 129.611 C 212.075 128.957,212.810 128.417,213.067 128.411 C 213.323 128.405,213.593 128.237,213.667 128.038 C 213.906 127.389,222.432 123.204,224.037 122.948 C 224.897 122.810,225.600 122.561,225.600 122.395 C 225.600 122.228,226.635 121.964,227.900 121.808 C 229.165 121.651,230.403 121.356,230.652 121.153 C 231.374 120.560,243.324 120.307,249.000 120.764 C 256.189 121.343,262.161 122.077,262.400 122.412 C 262.510 122.566,263.680 122.823,265.000 122.984 C 266.320 123.145,267.580 123.410,267.800 123.573 C 268.020 123.736,269.280 124.185,270.600 124.571 C 271.920 124.958,273.567 125.527,274.260 125.837 C 274.954 126.147,275.899 126.400,276.360 126.400 C 276.822 126.400,277.200 126.566,277.200 126.768 C 277.200 126.971,277.740 127.255,278.400 127.400 C 279.060 127.545,279.600 127.815,279.600 128.000 C 279.600 128.185,280.140 128.455,280.800 128.600 C 281.460 128.745,282.000 129.029,282.000 129.232 C 282.000 129.434,282.177 129.600,282.394 129.600 C 282.960 129.600,286.716 131.960,287.907 133.064 C 288.463 133.579,289.058 134.000,289.230 134.000 C 289.600 134.000,290.235 134.645,291.600 136.407 C 292.150 137.117,293.005 138.152,293.500 138.707 C 293.995 139.263,294.400 139.961,294.400 140.258 C 294.400 140.556,294.580 140.800,294.800 140.800 C 295.020 140.800,295.200 141.070,295.200 141.400 C 295.200 141.730,295.366 142.000,295.568 142.000 C 295.771 142.000,296.062 142.585,296.214 143.300 C 296.367 144.015,296.671 144.822,296.890 145.094 C 297.109 145.365,297.383 147.120,297.500 148.994 C 297.752 153.029,299.443 153.550,302.000 150.380 C 302.110 150.243,302.512 149.962,302.893 149.754 C 304.937 148.639,318.000 135.912,318.000 135.035 C 318.000 134.715,318.360 134.340,318.799 134.200 C 319.239 134.061,319.705 133.522,319.835 133.002 C 319.966 132.483,320.326 131.961,320.636 131.841 C 320.946 131.722,321.200 131.349,321.200 131.013 C 321.200 130.676,321.377 130.400,321.592 130.400 C 321.808 130.400,322.098 129.950,322.236 129.400 C 322.374 128.850,322.647 128.400,322.843 128.400 C 323.040 128.400,323.200 128.143,323.200 127.829 C 323.200 127.514,323.425 127.019,323.700 126.729 C 324.361 126.030,325.600 123.328,325.600 122.586 C 325.600 122.264,325.764 122.000,325.965 122.000 C 326.166 122.000,326.456 121.235,326.610 120.300 C 326.764 119.365,327.095 118.347,327.345 118.038 C 327.983 117.251,327.974 102.733,327.336 101.961 C 327.080 101.653,326.745 100.725,326.591 99.900 C 326.437 99.075,326.196 98.398,326.055 98.396 C 325.915 98.394,325.445 97.584,325.010 96.596 C 324.576 95.608,324.081 94.800,323.910 94.800 C 323.740 94.800,323.600 94.528,323.600 94.196 C 323.600 93.864,323.240 93.284,322.800 92.907 C 322.360 92.530,322.000 92.069,322.000 91.883 C 322.000 90.627,309.627 80.000,308.165 80.000 C 307.854 80.000,307.600 79.823,307.600 79.608 C 307.600 79.392,307.150 79.102,306.600 78.964 C 306.050 78.826,305.600 78.593,305.600 78.446 C 305.600 78.299,304.792 77.824,303.804 77.390 C 302.816 76.955,302.006 76.485,302.004 76.345 C 302.002 76.204,301.370 75.971,300.600 75.826 C 299.830 75.682,299.200 75.400,299.200 75.200 C 299.200 75.000,298.570 74.718,297.800 74.574 C 297.030 74.429,296.400 74.159,296.400 73.974 C 296.400 73.788,295.725 73.512,294.900 73.360 C 294.075 73.209,293.310 72.976,293.200 72.842 C 292.912 72.493,289.011 71.200,288.246 71.200 C 287.891 71.200,287.600 71.033,287.600 70.829 C 287.600 70.625,286.610 70.334,285.400 70.183 C 284.190 70.032,283.200 69.757,283.200 69.574 C 283.200 69.390,282.120 69.118,280.800 68.968 C 279.480 68.819,278.400 68.551,278.400 68.373 C 278.400 68.194,277.140 67.924,275.600 67.773 C 274.060 67.621,272.800 67.357,272.800 67.186 C 272.800 67.015,271.090 66.746,269.000 66.590 C 266.910 66.433,265.200 66.146,265.200 65.952 C 265.200 65.759,264.066 65.600,262.680 65.600 C 261.294 65.600,259.977 65.417,259.754 65.194 C 259.522 64.962,255.755 64.681,250.974 64.539 C 246.368 64.403,242.407 64.140,242.171 63.956 C 241.691 63.580,231.216 63.650,230.981 64.031 M335.200 200.762 C 335.200 200.962,334.255 201.242,333.100 201.385 C 331.945 201.528,330.640 201.809,330.200 202.009 C 329.346 202.398,324.121 202.989,316.000 203.613 C 306.576 204.338,285.270 203.972,282.000 203.028 C 280.254 202.525,252.045 202.275,249.200 202.739 C 242.767 203.786,241.718 204.052,238.540 205.447 C 237.846 205.751,236.901 206.000,236.440 206.000 C 235.978 206.000,235.600 206.166,235.600 206.368 C 235.600 206.571,235.060 206.855,234.400 207.000 C 233.740 207.145,233.200 207.429,233.200 207.632 C 233.200 207.834,232.987 208.000,232.726 208.000 C 231.960 208.000,228.800 209.638,228.800 210.036 C 228.800 210.236,228.612 210.400,228.383 210.400 C 227.901 210.400,223.467 213.587,223.266 214.077 C 223.192 214.258,222.980 214.311,222.795 214.197 C 222.609 214.082,222.343 214.351,222.202 214.794 C 222.061 215.237,221.788 215.600,221.595 215.600 C 221.153 215.600,217.566 219.220,215.650 221.600 C 214.852 222.590,214.065 223.460,213.900 223.533 C 213.735 223.607,213.600 223.894,213.600 224.171 C 213.600 224.449,213.240 225.002,212.800 225.400 C 212.360 225.798,212.000 226.366,212.000 226.662 C 212.000 226.958,211.820 227.200,211.600 227.200 C 211.380 227.200,211.200 227.470,211.200 227.800 C 211.200 228.130,211.038 228.400,210.839 228.400 C 210.641 228.400,210.283 228.895,210.045 229.500 C 209.573 230.697,208.757 232.080,208.332 232.404 C 208.184 232.516,207.940 233.101,207.788 233.704 C 207.637 234.307,207.367 234.800,207.188 234.800 C 207.010 234.800,206.745 235.340,206.600 236.000 C 206.455 236.660,206.171 237.200,205.968 237.200 C 205.766 237.200,205.599 237.515,205.598 237.900 C 205.596 238.285,205.327 239.114,205.000 239.742 C 204.672 240.370,204.491 241.023,204.597 241.195 C 204.703 241.366,204.432 241.961,203.995 242.516 C 203.558 243.072,203.200 243.934,203.200 244.432 C 203.200 244.930,202.906 245.662,202.546 246.060 C 201.943 246.726,201.942 246.885,202.537 248.091 C 202.892 248.811,203.186 249.181,203.191 248.913 C 203.205 248.171,204.431 248.780,205.852 250.234 C 206.541 250.939,207.469 251.631,207.915 251.773 C 208.361 251.915,208.827 252.294,208.950 252.615 C 209.074 252.937,209.373 253.200,209.616 253.200 C 210.384 253.200,212.551 255.311,213.472 256.956 C 213.750 257.454,213.982 257.552,214.168 257.251 C 214.322 257.003,214.257 256.800,214.024 256.800 C 213.791 256.800,213.600 256.601,213.600 256.357 C 213.600 256.114,213.870 256.018,214.200 256.145 C 214.565 256.285,214.800 256.145,214.800 255.787 C 214.800 255.464,214.980 255.200,215.200 255.200 C 215.420 255.200,215.600 254.939,215.600 254.620 C 215.600 254.301,216.185 253.470,216.900 252.773 C 217.615 252.076,217.930 251.633,217.600 251.788 C 217.270 251.943,217.450 251.698,218.000 251.244 C 218.550 250.789,218.873 250.414,218.718 250.409 C 217.997 250.386,227.906 240.400,228.648 240.400 C 228.978 240.400,229.136 240.220,229.000 240.000 C 228.864 239.780,229.014 239.600,229.334 239.600 C 229.653 239.600,230.018 239.330,230.145 239.000 C 230.271 238.670,230.585 238.400,230.842 238.400 C 231.098 238.400,231.725 237.950,232.235 237.400 C 232.745 236.850,233.338 236.400,233.552 236.400 C 233.767 236.400,234.184 236.175,234.479 235.900 C 234.773 235.625,235.911 234.950,237.007 234.400 C 238.103 233.850,239.060 233.265,239.133 233.100 C 239.207 232.935,239.522 232.800,239.833 232.800 C 240.145 232.800,240.400 232.620,240.400 232.400 C 240.400 232.180,240.625 231.999,240.900 231.998 C 241.175 231.996,241.883 231.743,242.473 231.435 C 243.063 231.127,244.098 230.754,244.773 230.606 C 245.448 230.458,246.000 230.171,246.000 229.968 C 246.000 229.766,246.405 229.599,246.900 229.598 C 247.395 229.596,248.294 229.337,248.898 229.022 C 249.502 228.707,250.809 228.328,251.803 228.179 C 252.797 228.030,253.708 227.748,253.829 227.554 C 253.949 227.359,254.667 227.200,255.424 227.200 C 256.181 227.200,256.800 227.037,256.800 226.837 C 256.800 226.638,258.513 226.346,260.606 226.189 C 262.699 226.032,264.510 225.746,264.630 225.552 C 264.749 225.358,265.657 225.200,266.647 225.200 C 268.732 225.200,268.677 225.784,266.555 226.182 C 265.756 226.332,264.764 226.622,264.351 226.827 C 263.938 227.032,263.242 227.380,262.805 227.600 C 262.368 227.820,261.783 228.006,261.505 228.014 C 261.227 228.021,260.280 228.375,259.400 228.800 C 258.520 229.225,257.575 229.579,257.300 229.586 C 257.025 229.594,256.800 229.760,256.800 229.955 C 256.800 230.151,256.170 230.429,255.400 230.574 C 254.630 230.718,253.998 230.963,253.996 231.118 C 253.994 231.273,253.184 231.755,252.196 232.190 C 251.208 232.624,250.400 233.079,250.400 233.202 C 250.400 233.324,249.905 233.646,249.300 233.917 C 247.655 234.652,246.147 235.587,246.594 235.594 C 246.811 235.597,246.271 235.976,245.394 236.435 C 244.517 236.895,243.600 237.525,243.356 237.835 C 243.112 238.146,242.749 238.400,242.551 238.400 C 242.352 238.400,241.382 239.204,240.395 240.187 C 239.408 241.170,238.477 241.980,238.327 241.987 C 237.922 242.006,230.213 250.000,230.600 250.000 C 230.690 250.000,230.367 250.423,229.882 250.939 C 229.397 251.456,228.550 252.477,228.000 253.210 C 227.450 253.942,226.784 254.758,226.519 255.023 C 226.255 255.288,226.150 255.616,226.286 255.752 C 226.422 255.889,226.323 256.000,226.067 256.000 C 225.810 256.000,225.600 256.251,225.600 256.557 C 225.600 256.864,225.319 257.222,224.975 257.354 C 224.631 257.486,224.462 257.777,224.600 258.000 C 224.738 258.223,224.566 258.515,224.218 258.648 C 223.870 258.782,223.617 259.096,223.656 259.346 C 223.770 260.083,223.146 261.214,222.758 260.974 C 222.561 260.852,222.400 261.033,222.400 261.376 C 222.400 261.719,222.224 262.000,222.009 262.000 C 221.187 262.000,222.535 263.947,223.529 264.197 C 224.094 264.339,225.118 265.050,225.804 265.777 C 226.490 266.504,227.428 267.218,227.888 267.365 C 228.349 267.511,228.827 267.894,228.950 268.215 C 229.074 268.537,229.374 268.800,229.618 268.800 C 229.862 268.800,230.602 269.340,231.262 270.000 C 231.922 270.660,232.675 271.200,232.936 271.200 C 233.197 271.200,233.748 271.650,234.161 272.200 C 234.574 272.750,235.081 273.200,235.287 273.200 C 235.493 273.200,236.202 273.740,236.862 274.400 C 237.522 275.060,238.252 275.600,238.485 275.600 C 238.718 275.600,239.306 276.029,239.792 276.553 C 240.278 277.077,241.054 277.627,241.517 277.774 C 241.980 277.921,242.470 278.392,242.606 278.820 C 242.743 279.249,243.032 279.600,243.251 279.600 C 243.469 279.600,243.565 279.735,243.466 279.900 C 242.901 280.833,244.514 281.152,248.862 280.969 C 255.835 280.675,256.570 280.619,257.000 280.346 C 257.314 280.146,260.510 279.565,262.067 279.424 C 262.213 279.411,262.468 279.265,262.633 279.100 C 262.798 278.935,263.353 278.800,263.867 278.800 C 264.380 278.800,264.800 278.643,264.800 278.452 C 264.800 278.260,265.706 277.983,266.814 277.836 C 267.922 277.689,268.735 277.418,268.621 277.234 C 268.508 277.050,269.131 276.785,270.007 276.645 C 270.883 276.505,271.600 276.213,271.600 275.995 C 271.600 275.778,271.915 275.597,272.300 275.594 C 272.685 275.591,273.450 275.334,274.000 275.023 C 274.550 274.713,275.585 274.155,276.300 273.784 C 277.015 273.412,277.600 272.949,277.600 272.754 C 277.600 272.559,277.861 272.400,278.180 272.400 C 278.870 272.400,282.463 270.067,282.920 269.322 C 283.096 269.035,283.434 268.800,283.671 268.800 C 283.909 268.800,284.769 268.215,285.583 267.500 C 286.396 266.785,287.935 265.480,289.002 264.600 C 293.256 261.092,305.646 248.985,307.631 246.397 C 308.164 245.702,309.095 244.622,309.700 243.997 C 310.305 243.373,310.800 242.677,310.800 242.451 C 310.800 242.225,311.039 241.896,311.331 241.720 C 311.623 241.544,312.202 240.815,312.618 240.100 C 313.033 239.385,313.494 238.800,313.642 238.800 C 313.791 238.800,314.607 237.722,315.456 236.403 C 316.305 235.085,317.135 234.005,317.300 234.003 C 317.465 234.002,317.600 233.758,317.600 233.462 C 317.600 233.166,318.058 232.401,318.617 231.762 C 319.177 231.123,320.294 229.520,321.099 228.200 C 321.905 226.880,322.798 225.562,323.082 225.271 C 323.367 224.981,323.600 224.568,323.600 224.355 C 323.600 224.141,323.915 223.626,324.300 223.210 C 324.685 222.793,325.450 221.586,326.000 220.526 C 326.550 219.467,327.115 218.510,327.256 218.400 C 327.397 218.290,327.910 217.435,328.397 216.500 C 328.883 215.565,329.398 214.798,329.540 214.795 C 329.683 214.793,330.144 214.073,330.564 213.195 C 330.985 212.318,331.465 211.600,331.633 211.600 C 331.800 211.600,332.055 211.060,332.200 210.400 C 332.345 209.740,332.626 209.200,332.824 209.200 C 333.022 209.200,333.298 208.750,333.436 208.200 C 333.574 207.650,333.847 207.200,334.043 207.200 C 334.240 207.200,334.400 206.943,334.400 206.629 C 334.400 206.314,334.625 205.819,334.901 205.529 C 335.176 205.238,335.761 204.280,336.201 203.400 C 336.640 202.520,337.135 201.740,337.300 201.667 C 338.134 201.296,337.497 200.400,336.400 200.400 C 335.740 200.400,335.200 200.563,335.200 200.762 " stroke="none" fill="#e5941c" fill-rule="evenodd"></path><path id="path2" d="M119.200 224.639 L 119.200 236.924 120.220 238.262 C 120.782 238.998,121.410 239.600,121.617 239.600 C 121.977 239.600,123.358 240.657,124.819 242.050 C 125.193 242.407,125.681 242.768,125.903 242.850 C 126.358 243.020,129.390 245.437,130.482 246.500 C 130.877 246.885,131.307 247.200,131.437 247.200 C 131.749 247.200,133.441 248.534,135.283 250.233 C 136.098 250.985,136.880 251.600,137.019 251.600 C 137.348 251.600,139.006 252.902,140.883 254.633 C 141.698 255.385,142.508 256.000,142.683 256.000 C 142.857 256.000,143.662 256.585,144.472 257.300 C 145.281 258.015,147.036 259.391,148.372 260.357 C 149.707 261.324,150.800 262.269,150.800 262.457 C 150.800 262.646,151.006 262.800,151.257 262.800 C 151.712 262.800,156.080 266.327,156.333 266.899 C 156.407 267.065,156.657 267.200,156.890 267.200 C 157.123 267.200,158.233 267.980,159.357 268.933 C 160.481 269.887,161.699 270.832,162.064 271.033 C 162.430 271.235,163.348 271.964,164.104 272.654 C 164.860 273.344,166.442 274.586,167.620 275.414 C 170.121 277.172,170.224 277.250,171.800 278.569 C 174.828 281.104,176.497 282.400,176.738 282.406 C 176.882 282.410,177.810 283.141,178.800 284.031 C 179.790 284.921,181.230 286.066,182.000 286.575 C 182.770 287.083,184.030 288.073,184.800 288.774 C 185.570 289.476,186.830 290.464,187.600 290.970 C 188.370 291.477,189.720 292.541,190.600 293.336 C 191.480 294.131,192.343 294.786,192.517 294.791 C 192.692 294.796,193.322 295.266,193.917 295.835 C 194.513 296.404,195.682 297.310,196.515 297.849 C 197.348 298.388,197.934 298.983,197.817 299.172 C 197.700 299.361,197.888 299.625,198.235 299.758 C 199.130 300.102,199.200 300.074,199.200 299.376 C 199.200 298.984,199.015 298.864,198.700 299.053 C 198.304 299.291,198.302 299.228,198.688 298.750 C 198.956 298.418,199.220 297.574,199.273 296.873 C 199.327 296.173,199.492 295.600,199.641 295.600 C 199.790 295.600,200.017 294.925,200.145 294.100 C 200.273 293.275,200.470 292.240,200.583 291.800 C 200.696 291.360,200.903 290.370,201.044 289.600 C 201.185 288.830,201.441 288.020,201.613 287.800 C 201.785 287.580,202.053 286.543,202.209 285.495 C 202.365 284.447,202.635 283.502,202.809 283.395 C 202.983 283.287,203.249 282.299,203.400 281.200 C 203.551 280.100,203.879 279.200,204.128 279.200 C 204.378 279.200,203.652 278.588,202.516 277.840 C 201.380 277.091,199.946 276.011,199.329 275.440 C 198.713 274.868,198.084 274.400,197.933 274.400 C 197.781 274.400,197.358 274.101,196.992 273.735 C 196.430 273.173,196.272 273.158,195.970 273.635 C 195.718 274.033,195.610 273.802,195.606 272.857 C 195.601 271.829,195.459 271.568,195.000 271.745 C 194.670 271.871,194.399 271.846,194.397 271.687 C 194.396 271.529,193.721 270.952,192.897 270.404 C 192.074 269.856,191.256 269.181,191.080 268.904 C 190.904 268.627,190.576 268.400,190.352 268.400 C 190.127 268.400,189.705 268.175,189.413 267.900 C 189.122 267.625,188.304 266.950,187.595 266.400 C 186.887 265.850,186.013 265.111,185.654 264.758 C 185.294 264.404,184.460 263.776,183.800 263.361 C 182.234 262.376,181.765 262.010,180.474 260.763 C 179.883 260.192,178.860 259.387,178.200 258.972 C 177.540 258.558,176.856 257.990,176.680 257.710 C 176.504 257.429,176.165 257.200,175.926 257.200 C 175.687 257.200,175.098 256.775,174.616 256.255 C 174.135 255.736,173.214 254.975,172.570 254.565 C 171.927 254.155,171.256 253.590,171.080 253.310 C 170.904 253.029,170.575 252.800,170.349 252.800 C 170.123 252.800,169.398 252.260,168.738 251.600 C 168.078 250.940,167.366 250.400,167.156 250.400 C 166.945 250.400,166.261 249.905,165.635 249.300 C 163.913 247.635,162.369 246.400,162.011 246.400 C 161.834 246.400,160.930 245.725,160.002 244.900 C 159.074 244.075,157.858 242.995,157.299 242.500 C 156.740 242.005,156.116 241.600,155.911 241.600 C 155.706 241.600,154.998 241.060,154.338 240.400 C 153.678 239.740,152.894 239.200,152.596 239.200 C 152.298 239.200,151.943 238.849,151.806 238.420 C 151.670 237.992,151.170 237.518,150.695 237.367 C 150.220 237.216,149.315 236.577,148.685 235.946 C 148.054 235.316,147.379 234.800,147.183 234.800 C 146.988 234.800,146.275 234.260,145.600 233.600 C 144.925 232.940,144.121 232.400,143.813 232.400 C 143.506 232.400,143.140 232.040,143.000 231.600 C 142.860 231.160,142.513 230.800,142.229 230.800 C 141.945 230.800,141.044 230.170,140.227 229.400 C 139.411 228.630,138.567 228.000,138.352 228.000 C 138.138 228.000,137.545 227.550,137.035 227.000 C 136.525 226.450,136.000 226.000,135.868 226.000 C 135.736 226.000,135.075 225.460,134.400 224.800 C 133.725 224.140,133.005 223.600,132.800 223.600 C 132.595 223.600,131.891 223.105,131.236 222.500 C 128.865 220.313,127.493 219.200,127.166 219.200 C 126.983 219.200,126.330 218.741,125.716 218.181 C 123.303 215.978,121.778 214.812,121.300 214.806 C 121.025 214.803,120.797 214.575,120.794 214.300 C 120.790 213.967,120.658 214.000,120.400 214.400 C 120.097 214.869,120.011 214.766,120.006 213.924 C 120.003 213.332,119.820 212.736,119.600 212.600 C 119.337 212.437,119.200 216.550,119.200 224.639 " stroke="none" fill="#b99d1e" fill-rule="evenodd"></path><path id="path3" d="M119.312 249.000 C 119.410 256.504,119.634 261.375,119.909 262.000 C 120.151 262.550,120.361 262.859,120.375 262.686 C 120.423 262.091,122.679 263.604,124.869 265.700 C 125.271 266.085,125.703 266.400,125.829 266.400 C 125.954 266.400,126.299 266.625,126.594 266.900 C 126.889 267.175,127.725 267.850,128.452 268.400 C 129.178 268.950,130.094 269.715,130.486 270.100 C 130.879 270.485,131.357 270.800,131.548 270.800 C 131.870 270.800,134.409 272.872,136.081 274.500 C 136.476 274.885,136.935 275.200,137.100 275.200 C 137.265 275.200,138.108 275.830,138.973 276.600 C 139.838 277.370,140.770 278.000,141.046 278.000 C 141.321 278.000,141.660 278.360,141.800 278.800 C 141.940 279.240,142.267 279.600,142.527 279.600 C 142.787 279.600,143.708 280.230,144.573 281.000 C 145.438 281.770,146.293 282.400,146.473 282.400 C 146.653 282.400,147.130 282.715,147.533 283.100 C 149.157 284.652,151.294 286.400,151.566 286.400 C 151.725 286.400,152.562 287.030,153.427 287.800 C 154.292 288.570,155.135 289.200,155.300 289.200 C 155.465 289.200,155.924 289.515,156.319 289.900 C 157.991 291.528,160.530 293.600,160.852 293.600 C 161.043 293.600,161.524 293.915,161.919 294.300 C 163.591 295.928,166.130 298.000,166.452 298.000 C 166.643 298.000,167.123 298.315,167.518 298.700 C 168.610 299.763,171.642 302.180,172.097 302.350 C 172.319 302.433,172.807 302.793,173.181 303.150 C 174.269 304.188,175.720 305.348,176.800 306.045 C 177.350 306.399,178.381 307.209,179.092 307.845 C 180.917 309.477,181.324 309.804,182.057 310.227 C 182.673 310.582,184.935 312.382,186.842 314.036 C 187.326 314.456,187.830 314.803,187.961 314.806 C 188.093 314.810,189.010 315.527,190.000 316.400 C 190.990 317.273,191.907 317.990,192.039 317.994 C 192.170 317.997,192.710 318.371,193.239 318.824 C 193.767 319.278,194.606 319.998,195.103 320.424 C 195.905 321.113,197.315 321.582,196.683 320.949 C 196.545 320.811,196.670 320.226,196.962 319.649 C 197.299 318.982,197.592 316.130,197.768 311.814 C 197.920 308.082,198.196 304.842,198.381 304.614 C 199.113 303.713,199.047 300.005,198.294 299.766 C 197.906 299.643,197.688 299.382,197.809 299.186 C 197.930 298.989,197.348 298.388,196.515 297.849 C 195.682 297.310,194.513 296.404,193.917 295.835 C 193.322 295.266,192.692 294.796,192.517 294.791 C 192.343 294.786,191.480 294.131,190.600 293.336 C 189.720 292.541,188.370 291.477,187.600 290.970 C 186.830 290.464,185.570 289.476,184.800 288.774 C 184.030 288.073,182.770 287.083,182.000 286.575 C 181.230 286.066,179.790 284.921,178.800 284.031 C 177.810 283.141,176.882 282.410,176.738 282.406 C 176.497 282.400,174.828 281.104,171.800 278.569 C 170.224 277.250,170.121 277.172,167.620 275.414 C 166.442 274.586,164.860 273.344,164.104 272.654 C 163.348 271.964,162.430 271.235,162.064 271.033 C 161.699 270.832,160.481 269.887,159.357 268.933 C 158.233 267.980,157.123 267.200,156.890 267.200 C 156.657 267.200,156.407 267.065,156.333 266.899 C 156.080 266.327,151.712 262.800,151.257 262.800 C 151.006 262.800,150.800 262.646,150.800 262.457 C 150.800 262.269,149.707 261.324,148.372 260.357 C 147.036 259.391,145.281 258.015,144.472 257.300 C 143.662 256.585,142.857 256.000,142.683 256.000 C 142.508 256.000,141.698 255.385,140.883 254.633 C 139.006 252.902,137.348 251.600,137.019 251.600 C 136.880 251.600,136.098 250.985,135.283 250.233 C 133.441 248.534,131.749 247.200,131.437 247.200 C 131.307 247.200,130.877 246.885,130.482 246.500 C 129.390 245.437,126.358 243.020,125.903 242.850 C 125.681 242.768,125.193 242.407,124.819 242.050 C 123.369 240.667,121.978 239.600,121.626 239.600 C 121.424 239.600,120.785 239.015,120.206 238.300 L 119.154 237.000 119.312 249.000 " stroke="none" fill="#9ca424" fill-rule="evenodd"></path><path id="path4" d="M119.272 196.876 C 119.226 206.841,119.342 212.441,119.600 212.600 C 119.820 212.736,120.003 213.332,120.006 213.924 C 120.011 214.766,120.097 214.869,120.400 214.400 C 120.658 214.000,120.790 213.967,120.794 214.300 C 120.797 214.575,121.025 214.803,121.300 214.806 C 121.778 214.812,123.303 215.978,125.716 218.181 C 126.330 218.741,126.983 219.200,127.166 219.200 C 127.493 219.200,128.865 220.313,131.236 222.500 C 131.891 223.105,132.595 223.600,132.800 223.600 C 133.005 223.600,133.725 224.140,134.400 224.800 C 135.075 225.460,135.736 226.000,135.868 226.000 C 136.000 226.000,136.525 226.450,137.035 227.000 C 137.545 227.550,138.138 228.000,138.352 228.000 C 138.567 228.000,139.411 228.630,140.227 229.400 C 141.044 230.170,141.945 230.800,142.229 230.800 C 142.513 230.800,142.860 231.160,143.000 231.600 C 143.140 232.040,143.506 232.400,143.813 232.400 C 144.121 232.400,144.925 232.940,145.600 233.600 C 146.275 234.260,146.988 234.800,147.183 234.800 C 147.379 234.800,148.054 235.316,148.685 235.946 C 149.315 236.577,150.220 237.216,150.695 237.367 C 151.170 237.518,151.670 237.992,151.806 238.420 C 151.943 238.849,152.298 239.200,152.596 239.200 C 152.894 239.200,153.678 239.740,154.338 240.400 C 154.998 241.060,155.706 241.600,155.911 241.600 C 156.116 241.600,156.740 242.005,157.299 242.500 C 157.858 242.995,159.074 244.075,160.002 244.900 C 160.930 245.725,161.834 246.400,162.011 246.400 C 162.369 246.400,163.913 247.635,165.635 249.300 C 166.261 249.905,166.945 250.400,167.156 250.400 C 167.366 250.400,168.078 250.940,168.738 251.600 C 169.398 252.260,170.123 252.800,170.349 252.800 C 170.575 252.800,170.904 253.029,171.080 253.310 C 171.256 253.590,171.927 254.155,172.570 254.565 C 173.214 254.975,174.135 255.736,174.616 256.255 C 175.098 256.775,175.687 257.200,175.926 257.200 C 176.165 257.200,176.504 257.429,176.680 257.710 C 176.856 257.990,177.540 258.558,178.200 258.972 C 178.860 259.387,179.883 260.192,180.474 260.763 C 181.765 262.010,182.234 262.376,183.800 263.361 C 184.460 263.776,185.294 264.404,185.654 264.758 C 186.013 265.111,186.887 265.850,187.595 266.400 C 188.304 266.950,189.122 267.625,189.413 267.900 C 189.705 268.175,190.127 268.400,190.352 268.400 C 190.576 268.400,190.904 268.627,191.080 268.904 C 191.256 269.181,192.074 269.856,192.897 270.404 C 193.721 270.952,194.396 271.529,194.397 271.687 C 194.399 271.846,194.670 271.871,195.000 271.745 C 195.521 271.545,195.594 269.322,195.556 254.857 C 195.528 244.319,195.386 238.845,195.168 239.955 C 194.809 241.781,194.400 242.601,194.400 241.494 C 194.400 241.142,194.012 240.731,193.538 240.580 C 192.632 240.293,190.800 238.527,190.800 237.942 C 190.800 237.754,190.558 237.600,190.261 237.600 C 189.965 237.600,189.307 237.240,188.800 236.800 C 188.293 236.360,187.680 235.992,187.439 235.983 C 187.197 235.974,186.558 235.434,186.019 234.783 C 185.479 234.132,184.804 233.600,184.519 233.600 C 184.233 233.600,184.000 233.432,184.000 233.227 C 184.000 233.022,183.649 232.743,183.220 232.606 C 182.792 232.470,182.330 232.008,182.194 231.580 C 182.057 231.151,181.686 230.800,181.369 230.800 C 181.052 230.800,180.484 230.440,180.107 230.000 C 179.730 229.560,179.275 229.200,179.094 229.200 C 178.724 229.200,177.862 228.537,176.883 227.500 C 176.520 227.115,176.035 226.800,175.806 226.800 C 175.577 226.800,175.052 226.350,174.639 225.800 C 174.226 225.250,173.726 224.800,173.527 224.800 C 173.127 224.800,172.287 224.164,171.283 223.100 C 170.920 222.715,170.458 222.400,170.257 222.400 C 170.056 222.400,169.475 221.950,168.965 221.400 C 168.455 220.850,167.932 220.400,167.802 220.400 C 167.516 220.400,166.577 219.647,165.683 218.700 C 165.320 218.315,164.868 218.000,164.680 218.000 C 164.492 218.000,163.798 217.460,163.138 216.800 C 162.478 216.140,161.725 215.600,161.464 215.600 C 161.203 215.600,160.652 215.150,160.239 214.600 C 159.826 214.050,159.319 213.600,159.113 213.600 C 158.907 213.600,158.198 213.060,157.538 212.400 C 156.878 211.740,156.148 211.200,155.915 211.200 C 155.682 211.200,155.075 210.750,154.565 210.200 C 154.055 209.650,153.526 209.200,153.388 209.200 C 153.251 209.200,152.598 208.660,151.938 208.000 C 151.278 207.340,150.558 206.800,150.338 206.800 C 150.118 206.800,149.398 206.260,148.738 205.600 C 148.078 204.940,147.294 204.400,146.996 204.400 C 146.698 204.400,146.343 204.049,146.206 203.620 C 146.070 203.192,145.570 202.718,145.095 202.567 C 144.620 202.416,143.715 201.777,143.085 201.146 C 142.454 200.516,141.764 200.000,141.550 200.000 C 141.337 200.000,140.745 199.550,140.235 199.000 C 139.725 198.450,139.180 198.000,139.023 198.000 C 138.867 198.000,138.198 197.460,137.538 196.800 C 136.878 196.140,136.164 195.600,135.950 195.600 C 135.737 195.600,135.165 195.175,134.681 194.656 C 134.196 194.136,133.404 193.587,132.920 193.435 C 132.437 193.283,131.933 192.817,131.800 192.400 C 131.667 191.983,131.171 191.518,130.697 191.367 C 130.222 191.217,129.382 190.577,128.828 189.947 C 128.275 189.316,127.583 188.800,127.292 188.800 C 127.000 188.800,126.345 188.350,125.835 187.800 C 125.325 187.250,124.731 186.800,124.514 186.800 C 124.297 186.800,123.706 186.260,123.200 185.600 C 122.694 184.940,121.947 184.400,121.540 184.400 C 121.133 184.400,120.800 184.209,120.800 183.976 C 120.800 182.692,119.988 184.318,119.928 185.724 C 119.881 186.814,119.766 186.352,119.600 184.400 C 119.459 182.750,119.312 188.364,119.272 196.876 M201.803 248.504 C 201.645 248.997,201.475 249.580,201.425 249.800 C 200.921 252.022,200.653 252.800,200.394 252.800 C 200.123 252.800,199.732 254.431,199.505 256.500 C 199.463 256.885,199.324 257.200,199.196 257.200 C 199.068 257.200,198.919 257.866,198.864 258.681 C 198.809 259.495,198.611 260.350,198.424 260.581 C 198.133 260.940,197.775 262.658,196.961 267.600 C 196.871 268.150,196.687 269.500,196.553 270.600 C 196.419 271.700,196.150 272.660,195.955 272.733 C 195.760 272.807,195.603 273.167,195.606 273.533 C 195.611 274.080,195.677 274.098,195.970 273.635 C 196.272 273.158,196.430 273.173,196.992 273.735 C 197.358 274.101,197.779 274.403,197.929 274.406 C 198.078 274.410,198.830 274.972,199.600 275.656 C 202.177 277.946,204.508 279.243,204.352 278.300 C 204.214 277.463,204.864 275.592,205.217 275.811 C 205.399 275.923,205.671 275.202,205.820 274.208 C 205.969 273.213,206.229 272.400,206.399 272.400 C 206.568 272.400,206.838 271.995,207.000 271.500 C 207.161 271.005,207.332 270.510,207.381 270.400 C 207.429 270.290,207.606 269.840,207.773 269.400 C 208.321 267.959,209.394 265.804,209.668 265.596 C 209.816 265.484,210.060 264.899,210.212 264.296 C 210.363 263.693,210.639 263.200,210.825 263.200 C 211.011 263.200,211.282 262.572,211.426 261.804 C 211.570 261.035,211.848 260.506,212.044 260.627 C 212.240 260.748,212.400 260.387,212.400 259.824 C 212.400 259.261,212.591 258.800,212.824 258.800 C 213.057 258.800,213.136 258.620,213.000 258.400 C 212.864 258.180,212.943 258.000,213.176 258.000 C 214.729 258.000,211.675 253.923,209.500 253.092 C 209.115 252.945,208.800 252.652,208.800 252.440 C 208.800 252.227,208.418 251.933,207.952 251.785 C 207.486 251.637,206.541 250.939,205.852 250.234 C 204.396 248.744,203.333 248.245,203.057 248.922 C 202.949 249.190,202.849 249.102,202.832 248.724 C 202.782 247.658,202.120 247.517,201.803 248.504 M221.627 262.913 C 221.612 263.304,221.330 263.729,221.000 263.855 C 220.670 263.982,220.400 264.323,220.400 264.614 C 220.400 264.905,220.173 265.381,219.895 265.671 C 219.618 265.962,219.174 266.650,218.910 267.200 C 218.645 267.750,217.896 269.129,217.245 270.264 C 216.594 271.399,216.168 272.434,216.297 272.564 C 216.427 272.694,216.323 272.800,216.067 272.800 C 215.810 272.800,215.600 273.070,215.600 273.400 C 215.600 273.730,215.420 274.000,215.200 274.000 C 214.511 274.000,214.764 275.385,215.541 275.870 C 215.949 276.125,217.121 276.459,218.146 276.613 C 219.171 276.767,220.100 277.039,220.211 277.218 C 220.322 277.397,221.400 277.667,222.606 277.818 C 223.813 277.969,224.800 278.233,224.800 278.404 C 224.800 278.576,225.565 278.823,226.500 278.953 C 227.435 279.084,228.650 279.282,229.200 279.394 C 231.597 279.883,235.987 280.480,238.200 280.620 C 239.520 280.703,241.365 280.860,242.300 280.969 C 243.255 281.080,244.000 280.999,244.000 280.783 C 244.000 280.572,243.809 280.400,243.576 280.400 C 243.343 280.400,243.264 280.220,243.400 280.000 C 243.536 279.780,243.469 279.600,243.251 279.600 C 243.032 279.600,242.743 279.249,242.606 278.820 C 242.470 278.392,241.980 277.921,241.517 277.774 C 241.054 277.627,240.278 277.077,239.792 276.553 C 239.306 276.029,238.718 275.600,238.485 275.600 C 238.252 275.600,237.522 275.060,236.862 274.400 C 236.202 273.740,235.493 273.200,235.287 273.200 C 235.081 273.200,234.574 272.750,234.161 272.200 C 233.748 271.650,233.197 271.200,232.936 271.200 C 232.675 271.200,231.953 270.695,231.331 270.077 C 230.709 269.459,229.885 268.835,229.500 268.689 C 229.115 268.544,228.800 268.252,228.800 268.040 C 228.800 267.827,228.406 267.529,227.925 267.376 C 227.444 267.224,226.490 266.504,225.804 265.777 C 225.118 265.050,224.093 264.338,223.526 264.196 C 222.958 264.053,222.305 263.546,222.074 263.068 C 221.723 262.343,221.650 262.317,221.627 262.913 " stroke="none" fill="#d0971c" fill-rule="evenodd"></path></g></svg>